<mxfile host="www.draw.io" modified="2019-12-28T08:26:45.634Z" agent="Mozilla/5.0 (Windows NT 6.1; WOW64) AppleWebKit/537.36 (KHTML, like Gecko) Chrome/75.0.3770.100 Safari/537.36" etag="FchLzacza8k3bfHrSCpP" version="12.4.7" type="github">
  <diagram id="B-St81CDL6i98inCR_Cj" name="第 1 页">
    <mxGraphModel dx="854" dy="478" grid="1" gridSize="10" guides="1" tooltips="1" connect="1" arrows="1" fold="1" page="1" pageScale="1" pageWidth="827" pageHeight="1169" math="0" shadow="0">
      <root>
        <mxCell id="0"/>
        <mxCell id="1" parent="0"/>
        <mxCell id="LeGU5Av7BmG3cuybzMRu-1" value="" style="rounded=0;whiteSpace=wrap;html=1;fontFamily=Courier New;fontColor=#000000;" vertex="1" parent="1">
          <mxGeometry x="60" y="120" width="740" height="590" as="geometry"/>
        </mxCell>
        <mxCell id="LeGU5Av7BmG3cuybzMRu-2" value="调度人员" style="rounded=0;whiteSpace=wrap;html=1;fillColor=#4D4D4D;fontColor=#FFFFFF;" vertex="1" parent="1">
          <mxGeometry x="200" y="90" width="150" height="30" as="geometry"/>
        </mxCell>
        <mxCell id="LeGU5Av7BmG3cuybzMRu-3" value="零担供应商" style="rounded=0;whiteSpace=wrap;html=1;fillColor=#4D4D4D;fontColor=#FFFFFF;" vertex="1" parent="1">
          <mxGeometry x="350" y="90" width="150" height="30" as="geometry"/>
        </mxCell>
        <mxCell id="LeGU5Av7BmG3cuybzMRu-4" value="财务人员" style="rounded=0;whiteSpace=wrap;html=1;fillColor=#4D4D4D;fontColor=#FFFFFF;" vertex="1" parent="1">
          <mxGeometry x="500" y="90" width="160" height="30" as="geometry"/>
        </mxCell>
        <mxCell id="LeGU5Av7BmG3cuybzMRu-5" value="体系外线下业务流程" style="rounded=0;whiteSpace=wrap;html=1;fillColor=#CC0000;fontColor=#FFFFFF;fontSize=14;fontStyle=1;fontFamily=Courier New;" vertex="1" parent="1">
          <mxGeometry x="60" y="50" width="740" height="40" as="geometry"/>
        </mxCell>
        <mxCell id="LeGU5Av7BmG3cuybzMRu-6" value="企业货主" style="rounded=1;whiteSpace=wrap;html=1;" vertex="1" parent="1">
          <mxGeometry x="95" y="183" width="70" height="30" as="geometry"/>
        </mxCell>
        <mxCell id="LeGU5Av7BmG3cuybzMRu-8" value="省内企业货主" style="rounded=0;whiteSpace=wrap;html=1;fillColor=#4D4D4D;fontColor=#FFFFFF;" vertex="1" parent="1">
          <mxGeometry x="60" y="90" width="140" height="30" as="geometry"/>
        </mxCell>
        <mxCell id="LeGU5Av7BmG3cuybzMRu-58" value="微信&lt;br&gt;邮件&lt;br&gt;电话" style="edgeStyle=orthogonalEdgeStyle;rounded=1;orthogonalLoop=1;jettySize=auto;html=1;entryX=0;entryY=0.5;entryDx=0;entryDy=0;exitX=1;exitY=0.5;exitDx=0;exitDy=0;" edge="1" parent="1" source="LeGU5Av7BmG3cuybzMRu-102" target="LeGU5Av7BmG3cuybzMRu-108">
          <mxGeometry relative="1" as="geometry"/>
        </mxCell>
        <mxCell id="LeGU5Av7BmG3cuybzMRu-104" style="edgeStyle=orthogonalEdgeStyle;rounded=1;comic=0;jumpStyle=gap;jumpSize=6;orthogonalLoop=1;jettySize=auto;html=1;entryX=0.5;entryY=0;entryDx=0;entryDy=0;shadow=0;strokeColor=#000000;" edge="1" parent="1" source="LeGU5Av7BmG3cuybzMRu-10" target="LeGU5Av7BmG3cuybzMRu-102">
          <mxGeometry relative="1" as="geometry"/>
        </mxCell>
        <mxCell id="LeGU5Av7BmG3cuybzMRu-106" style="edgeStyle=orthogonalEdgeStyle;rounded=1;comic=0;jumpStyle=gap;jumpSize=6;orthogonalLoop=1;jettySize=auto;html=1;entryX=0.5;entryY=1;entryDx=0;entryDy=0;shadow=0;strokeColor=#000000;" edge="1" parent="1" source="LeGU5Av7BmG3cuybzMRu-10" target="LeGU5Av7BmG3cuybzMRu-105">
          <mxGeometry relative="1" as="geometry"/>
        </mxCell>
        <mxCell id="LeGU5Av7BmG3cuybzMRu-10" value="调度员&lt;br&gt;刘金兴" style="rounded=1;whiteSpace=wrap;html=1;" vertex="1" parent="1">
          <mxGeometry x="240" y="213" width="70" height="30" as="geometry"/>
        </mxCell>
        <mxCell id="LeGU5Av7BmG3cuybzMRu-18" value="外部调车平台" style="rounded=0;whiteSpace=wrap;html=1;fillColor=#4D4D4D;fontColor=#FFFFFF;" vertex="1" parent="1">
          <mxGeometry x="660" y="90" width="140" height="30" as="geometry"/>
        </mxCell>
        <mxCell id="LeGU5Av7BmG3cuybzMRu-25" value="微信&lt;br&gt;邮件&lt;br&gt;电话" style="edgeStyle=orthogonalEdgeStyle;rounded=1;orthogonalLoop=1;jettySize=auto;html=1;strokeWidth=1;fontFamily=Courier New;fontColor=#000000;entryX=0;entryY=0.5;entryDx=0;entryDy=0;exitX=1;exitY=0.5;exitDx=0;exitDy=0;strokeColor=#000000;" edge="1" parent="1" source="LeGU5Av7BmG3cuybzMRu-6" target="LeGU5Av7BmG3cuybzMRu-10">
          <mxGeometry relative="1" as="geometry">
            <Array as="points">
              <mxPoint x="200" y="198"/>
              <mxPoint x="200" y="228"/>
            </Array>
          </mxGeometry>
        </mxCell>
        <mxCell id="LeGU5Av7BmG3cuybzMRu-79" value="按结算账期" style="edgeStyle=orthogonalEdgeStyle;rounded=1;comic=0;jumpStyle=gap;jumpSize=6;orthogonalLoop=1;jettySize=auto;html=1;shadow=0;" edge="1" parent="1" source="LeGU5Av7BmG3cuybzMRu-27" target="LeGU5Av7BmG3cuybzMRu-78">
          <mxGeometry relative="1" as="geometry"/>
        </mxCell>
        <mxCell id="LeGU5Av7BmG3cuybzMRu-165" style="edgeStyle=orthogonalEdgeStyle;rounded=1;comic=0;jumpStyle=gap;jumpSize=6;orthogonalLoop=1;jettySize=auto;html=1;entryX=0;entryY=0.5;entryDx=0;entryDy=0;shadow=0;startArrow=none;startFill=0;strokeColor=#000000;" edge="1" parent="1" source="LeGU5Av7BmG3cuybzMRu-27" target="LeGU5Av7BmG3cuybzMRu-41">
          <mxGeometry relative="1" as="geometry"/>
        </mxCell>
        <mxCell id="LeGU5Av7BmG3cuybzMRu-27" value="回单&lt;br&gt;承运凭证" style="rounded=1;whiteSpace=wrap;html=1;" vertex="1" parent="1">
          <mxGeometry x="390" y="323" width="70" height="30" as="geometry"/>
        </mxCell>
        <mxCell id="LeGU5Av7BmG3cuybzMRu-94" style="edgeStyle=orthogonalEdgeStyle;rounded=1;comic=0;jumpStyle=gap;jumpSize=6;orthogonalLoop=1;jettySize=auto;html=1;shadow=0;" edge="1" parent="1" source="LeGU5Av7BmG3cuybzMRu-78" target="LeGU5Av7BmG3cuybzMRu-81">
          <mxGeometry relative="1" as="geometry">
            <Array as="points">
              <mxPoint x="480" y="415"/>
              <mxPoint x="480" y="415"/>
            </Array>
          </mxGeometry>
        </mxCell>
        <mxCell id="LeGU5Av7BmG3cuybzMRu-118" value="&lt;span style=&quot;font-size: 11px&quot;&gt;9%税率发票&lt;/span&gt;" style="text;html=1;align=center;verticalAlign=middle;resizable=0;points=[];labelBackgroundColor=#ffffff;" vertex="1" connectable="0" parent="LeGU5Av7BmG3cuybzMRu-94">
          <mxGeometry x="-0.6478" y="2" relative="1" as="geometry">
            <mxPoint x="23" y="-9" as="offset"/>
          </mxGeometry>
        </mxCell>
        <mxCell id="LeGU5Av7BmG3cuybzMRu-78" value="开具发票" style="rounded=1;whiteSpace=wrap;html=1;" vertex="1" parent="1">
          <mxGeometry x="390" y="400" width="70" height="30" as="geometry"/>
        </mxCell>
        <mxCell id="LeGU5Av7BmG3cuybzMRu-52" value="" style="edgeStyle=orthogonalEdgeStyle;rounded=1;orthogonalLoop=1;jettySize=auto;html=1;" edge="1" parent="1" source="LeGU5Av7BmG3cuybzMRu-33" target="LeGU5Av7BmG3cuybzMRu-51">
          <mxGeometry relative="1" as="geometry"/>
        </mxCell>
        <mxCell id="LeGU5Av7BmG3cuybzMRu-33" value="发布货源" style="rounded=1;whiteSpace=wrap;html=1;" vertex="1" parent="1">
          <mxGeometry x="700" y="140" width="70" height="30" as="geometry"/>
        </mxCell>
        <mxCell id="LeGU5Av7BmG3cuybzMRu-100" style="edgeStyle=orthogonalEdgeStyle;rounded=1;comic=0;jumpStyle=gap;jumpSize=6;orthogonalLoop=1;jettySize=auto;html=1;entryX=0.5;entryY=0;entryDx=0;entryDy=0;shadow=0;" edge="1" parent="1" source="LeGU5Av7BmG3cuybzMRu-51" target="LeGU5Av7BmG3cuybzMRu-24">
          <mxGeometry relative="1" as="geometry"/>
        </mxCell>
        <mxCell id="LeGU5Av7BmG3cuybzMRu-51" value="&lt;span style=&quot;font-size: 11px ; font-family: &amp;#34;courier new&amp;#34; ; background-color: rgb(255 , 255 , 255)&quot;&gt;收发货信息&lt;/span&gt;&lt;br style=&quot;font-size: 11px ; font-family: &amp;#34;courier new&amp;#34; ; background-color: rgb(255 , 255 , 255)&quot;&gt;&lt;span style=&quot;font-size: 11px ; font-family: &amp;#34;courier new&amp;#34; ; background-color: rgb(255 , 255 , 255)&quot;&gt;车辆要求等&lt;/span&gt;" style="rounded=1;whiteSpace=wrap;html=1;" vertex="1" parent="1">
          <mxGeometry x="700" y="218" width="70" height="40" as="geometry"/>
        </mxCell>
        <mxCell id="LeGU5Av7BmG3cuybzMRu-83" style="edgeStyle=orthogonalEdgeStyle;rounded=1;comic=0;jumpStyle=gap;jumpSize=6;orthogonalLoop=1;jettySize=auto;html=1;entryX=0.5;entryY=0;entryDx=0;entryDy=0;shadow=0;" edge="1" parent="1" source="LeGU5Av7BmG3cuybzMRu-41" target="LeGU5Av7BmG3cuybzMRu-81">
          <mxGeometry relative="1" as="geometry"/>
        </mxCell>
        <mxCell id="LeGU5Av7BmG3cuybzMRu-41" value="对账" style="rounded=1;whiteSpace=wrap;html=1;" vertex="1" parent="1">
          <mxGeometry x="550" y="323" width="80" height="30" as="geometry"/>
        </mxCell>
        <mxCell id="LeGU5Av7BmG3cuybzMRu-47" value="结算账期&lt;br&gt;1个月/3个月" style="rounded=1;whiteSpace=wrap;html=1;" vertex="1" parent="1">
          <mxGeometry x="95" y="293" width="70" height="30" as="geometry"/>
        </mxCell>
        <mxCell id="LeGU5Av7BmG3cuybzMRu-62" value="无轨迹,不用上传运单" style="edgeStyle=orthogonalEdgeStyle;rounded=1;orthogonalLoop=1;jettySize=auto;html=1;entryX=0.5;entryY=0;entryDx=0;entryDy=0;" edge="1" parent="1" source="LeGU5Av7BmG3cuybzMRu-57" target="LeGU5Av7BmG3cuybzMRu-27">
          <mxGeometry relative="1" as="geometry"/>
        </mxCell>
        <mxCell id="LeGU5Av7BmG3cuybzMRu-57" value="承运" style="rounded=1;whiteSpace=wrap;html=1;" vertex="1" parent="1">
          <mxGeometry x="390" y="253" width="70" height="30" as="geometry"/>
        </mxCell>
        <mxCell id="LeGU5Av7BmG3cuybzMRu-101" style="edgeStyle=orthogonalEdgeStyle;rounded=1;comic=0;jumpStyle=gap;jumpSize=6;orthogonalLoop=1;jettySize=auto;html=1;entryX=0.5;entryY=0;entryDx=0;entryDy=0;shadow=0;" edge="1" parent="1" source="LeGU5Av7BmG3cuybzMRu-24" target="LeGU5Av7BmG3cuybzMRu-63">
          <mxGeometry relative="1" as="geometry"/>
        </mxCell>
        <mxCell id="LeGU5Av7BmG3cuybzMRu-24" value="司机接单" style="rounded=1;whiteSpace=wrap;html=1;" vertex="1" parent="1">
          <mxGeometry x="700" y="305" width="70" height="30" as="geometry"/>
        </mxCell>
        <mxCell id="LeGU5Av7BmG3cuybzMRu-86" value="" style="edgeStyle=orthogonalEdgeStyle;rounded=1;comic=0;jumpStyle=gap;jumpSize=6;orthogonalLoop=1;jettySize=auto;html=1;shadow=0;" edge="1" parent="1" source="LeGU5Av7BmG3cuybzMRu-63" target="LeGU5Av7BmG3cuybzMRu-85">
          <mxGeometry relative="1" as="geometry"/>
        </mxCell>
        <mxCell id="LeGU5Av7BmG3cuybzMRu-63" value="提货" style="rounded=1;whiteSpace=wrap;html=1;" vertex="1" parent="1">
          <mxGeometry x="700" y="380" width="70" height="30" as="geometry"/>
        </mxCell>
        <mxCell id="LeGU5Av7BmG3cuybzMRu-161" style="edgeStyle=orthogonalEdgeStyle;rounded=1;comic=0;jumpStyle=gap;jumpSize=6;orthogonalLoop=1;jettySize=auto;html=1;entryX=1;entryY=0.5;entryDx=0;entryDy=0;shadow=0;startArrow=none;startFill=0;strokeColor=#000000;" edge="1" parent="1" source="LeGU5Av7BmG3cuybzMRu-85" target="LeGU5Av7BmG3cuybzMRu-123">
          <mxGeometry relative="1" as="geometry">
            <Array as="points">
              <mxPoint x="790" y="465"/>
              <mxPoint x="790" y="595"/>
            </Array>
          </mxGeometry>
        </mxCell>
        <mxCell id="LeGU5Av7BmG3cuybzMRu-162" style="edgeStyle=orthogonalEdgeStyle;rounded=1;comic=0;jumpStyle=gap;jumpSize=6;orthogonalLoop=1;jettySize=auto;html=1;entryX=0.5;entryY=0;entryDx=0;entryDy=0;shadow=0;startArrow=none;startFill=0;strokeColor=#000000;" edge="1" parent="1" source="LeGU5Av7BmG3cuybzMRu-85" target="LeGU5Av7BmG3cuybzMRu-111">
          <mxGeometry relative="1" as="geometry">
            <Array as="points">
              <mxPoint x="735" y="500"/>
              <mxPoint x="580" y="500"/>
            </Array>
          </mxGeometry>
        </mxCell>
        <mxCell id="LeGU5Av7BmG3cuybzMRu-85" value="运抵卸货" style="rounded=1;whiteSpace=wrap;html=1;" vertex="1" parent="1">
          <mxGeometry x="700" y="450" width="70" height="30" as="geometry"/>
        </mxCell>
        <mxCell id="LeGU5Av7BmG3cuybzMRu-76" value="资金池" style="rounded=1;whiteSpace=wrap;html=1;fillColor=#b0e3e6;strokeColor=#0e8088;" vertex="1" parent="1">
          <mxGeometry x="550" y="223" width="80" height="30" as="geometry"/>
        </mxCell>
        <mxCell id="LeGU5Av7BmG3cuybzMRu-80" value="收款" style="rounded=1;whiteSpace=wrap;html=1;fillColor=#fad9d5;strokeColor=#ae4132;" vertex="1" parent="1">
          <mxGeometry x="390" y="470" width="70" height="30" as="geometry"/>
        </mxCell>
        <mxCell id="LeGU5Av7BmG3cuybzMRu-81" value="财务审核" style="rounded=1;whiteSpace=wrap;html=1;" vertex="1" parent="1">
          <mxGeometry x="550" y="400" width="80" height="30" as="geometry"/>
        </mxCell>
        <mxCell id="LeGU5Av7BmG3cuybzMRu-102" value="零担货源" style="rounded=1;whiteSpace=wrap;html=1;" vertex="1" parent="1">
          <mxGeometry x="240" y="293" width="70" height="30" as="geometry"/>
        </mxCell>
        <mxCell id="LeGU5Av7BmG3cuybzMRu-107" style="edgeStyle=orthogonalEdgeStyle;rounded=1;comic=0;jumpStyle=gap;jumpSize=6;orthogonalLoop=1;jettySize=auto;html=1;entryX=0;entryY=0.5;entryDx=0;entryDy=0;shadow=0;strokeColor=#000000;" edge="1" parent="1" source="LeGU5Av7BmG3cuybzMRu-105" target="LeGU5Av7BmG3cuybzMRu-33">
          <mxGeometry relative="1" as="geometry"/>
        </mxCell>
        <mxCell id="LeGU5Av7BmG3cuybzMRu-105" value="整车货源" style="rounded=1;whiteSpace=wrap;html=1;" vertex="1" parent="1">
          <mxGeometry x="240" y="140" width="70" height="30" as="geometry"/>
        </mxCell>
        <mxCell id="LeGU5Av7BmG3cuybzMRu-109" value="供应商承担运输责任" style="edgeStyle=orthogonalEdgeStyle;rounded=1;comic=0;jumpStyle=gap;jumpSize=6;orthogonalLoop=1;jettySize=auto;html=1;entryX=0.5;entryY=0;entryDx=0;entryDy=0;shadow=0;strokeColor=#000000;" edge="1" parent="1" source="LeGU5Av7BmG3cuybzMRu-108" target="LeGU5Av7BmG3cuybzMRu-57">
          <mxGeometry relative="1" as="geometry"/>
        </mxCell>
        <mxCell id="LeGU5Av7BmG3cuybzMRu-108" value="&lt;span style=&quot;font-size: 11px ; font-family: &amp;#34;courier new&amp;#34; ; background-color: rgb(255 , 255 , 255)&quot;&gt;收发货信息&lt;/span&gt;&lt;br style=&quot;font-size: 11px ; font-family: &amp;#34;courier new&amp;#34; ; background-color: rgb(255 , 255 , 255)&quot;&gt;&lt;span style=&quot;font-size: 11px ; font-family: &amp;#34;courier new&amp;#34; ; background-color: rgb(255 , 255 , 255)&quot;&gt;车辆要求等&lt;/span&gt;" style="rounded=1;whiteSpace=wrap;html=1;" vertex="1" parent="1">
          <mxGeometry x="390" y="163" width="70" height="40" as="geometry"/>
        </mxCell>
        <mxCell id="LeGU5Av7BmG3cuybzMRu-142" style="edgeStyle=orthogonalEdgeStyle;rounded=1;comic=0;jumpStyle=gap;jumpSize=6;orthogonalLoop=1;jettySize=auto;html=1;entryX=0;entryY=0.5;entryDx=0;entryDy=0;shadow=0;strokeColor=#000000;" edge="1" parent="1" source="LeGU5Av7BmG3cuybzMRu-111" target="LeGU5Av7BmG3cuybzMRu-112">
          <mxGeometry relative="1" as="geometry"/>
        </mxCell>
        <mxCell id="LeGU5Av7BmG3cuybzMRu-111" value="财务审核" style="rounded=1;whiteSpace=wrap;html=1;" vertex="1" parent="1">
          <mxGeometry x="540" y="520" width="80" height="30" as="geometry"/>
        </mxCell>
        <mxCell id="LeGU5Av7BmG3cuybzMRu-112" value="司机收款" style="rounded=1;whiteSpace=wrap;html=1;fillColor=#fad9d5;strokeColor=#ae4132;" vertex="1" parent="1">
          <mxGeometry x="700" y="520" width="70" height="30" as="geometry"/>
        </mxCell>
        <mxCell id="LeGU5Av7BmG3cuybzMRu-146" style="edgeStyle=orthogonalEdgeStyle;rounded=1;comic=0;jumpStyle=gap;jumpSize=6;orthogonalLoop=1;jettySize=auto;html=1;entryX=1;entryY=0.5;entryDx=0;entryDy=0;shadow=0;startArrow=none;startFill=0;strokeColor=#000000;" edge="1" parent="1" source="LeGU5Av7BmG3cuybzMRu-123" target="LeGU5Av7BmG3cuybzMRu-145">
          <mxGeometry relative="1" as="geometry"/>
        </mxCell>
        <mxCell id="LeGU5Av7BmG3cuybzMRu-123" value="回单邮寄" style="rounded=1;whiteSpace=wrap;html=1;" vertex="1" parent="1">
          <mxGeometry x="700" y="580" width="70" height="30" as="geometry"/>
        </mxCell>
        <mxCell id="LeGU5Av7BmG3cuybzMRu-133" value="按账期当面提供" style="text;html=1;align=center;verticalAlign=middle;resizable=0;points=[];labelBackgroundColor=#ffffff;" vertex="1" connectable="0" parent="1">
          <mxGeometry x="504" y="350" as="geometry">
            <mxPoint x="2" y="-27" as="offset"/>
          </mxGeometry>
        </mxCell>
        <mxCell id="LeGU5Av7BmG3cuybzMRu-134" style="edgeStyle=orthogonalEdgeStyle;rounded=1;comic=0;jumpStyle=gap;jumpSize=6;orthogonalLoop=1;jettySize=auto;html=1;entryX=1;entryY=0.5;entryDx=0;entryDy=0;shadow=0;" edge="1" parent="1" source="LeGU5Av7BmG3cuybzMRu-81" target="LeGU5Av7BmG3cuybzMRu-80">
          <mxGeometry relative="1" as="geometry">
            <mxPoint x="580" y="400" as="sourcePoint"/>
            <mxPoint x="610" y="518" as="targetPoint"/>
            <Array as="points">
              <mxPoint x="589" y="485"/>
            </Array>
          </mxGeometry>
        </mxCell>
        <mxCell id="LeGU5Av7BmG3cuybzMRu-135" value="线下打款" style="text;html=1;align=center;verticalAlign=middle;resizable=0;points=[];labelBackgroundColor=#ffffff;" vertex="1" connectable="0" parent="LeGU5Av7BmG3cuybzMRu-134">
          <mxGeometry x="-0.7208" y="-1" relative="1" as="geometry">
            <mxPoint x="-68" y="23" as="offset"/>
          </mxGeometry>
        </mxCell>
        <mxCell id="LeGU5Av7BmG3cuybzMRu-147" value="线下支付尾款200元" style="edgeStyle=orthogonalEdgeStyle;rounded=1;comic=0;jumpStyle=gap;jumpSize=6;orthogonalLoop=1;jettySize=auto;html=1;entryX=0.5;entryY=1;entryDx=0;entryDy=0;shadow=0;startArrow=none;startFill=0;strokeColor=#000000;" edge="1" parent="1" source="LeGU5Av7BmG3cuybzMRu-145" target="LeGU5Av7BmG3cuybzMRu-112">
          <mxGeometry relative="1" as="geometry">
            <Array as="points">
              <mxPoint x="580" y="570"/>
              <mxPoint x="735" y="570"/>
            </Array>
          </mxGeometry>
        </mxCell>
        <mxCell id="LeGU5Av7BmG3cuybzMRu-155" value="专人代开" style="edgeStyle=orthogonalEdgeStyle;rounded=1;comic=0;jumpStyle=gap;jumpSize=6;orthogonalLoop=1;jettySize=auto;html=1;shadow=0;startArrow=none;startFill=0;strokeColor=#000000;" edge="1" parent="1" source="LeGU5Av7BmG3cuybzMRu-145" target="LeGU5Av7BmG3cuybzMRu-148">
          <mxGeometry relative="1" as="geometry"/>
        </mxCell>
        <mxCell id="LeGU5Av7BmG3cuybzMRu-145" value="回单确认" style="rounded=1;whiteSpace=wrap;html=1;" vertex="1" parent="1">
          <mxGeometry x="540" y="580" width="80" height="30" as="geometry"/>
        </mxCell>
        <mxCell id="LeGU5Av7BmG3cuybzMRu-148" value="代开司机3%税率发票" style="rounded=1;whiteSpace=wrap;html=1;fillColor=#b0e3e6;strokeColor=#0e8088;" vertex="1" parent="1">
          <mxGeometry x="540" y="650" width="80" height="30" as="geometry"/>
        </mxCell>
        <mxCell id="LeGU5Av7BmG3cuybzMRu-164" value="预留200元尾款" style="text;html=1;" vertex="1" parent="1">
          <mxGeometry x="620" y="500" width="110" height="30" as="geometry"/>
        </mxCell>
      </root>
    </mxGraphModel>
  </diagram>
</mxfile>
